<?xml version="1.0" encoding="UTF-8"?> <svg xmlns="http://www.w3.org/2000/svg" width="39" height="42" viewBox="0 0 39 42" fill="none"><g clip-path="url(#clip0_1614_159253)"><path d="M31.5 5H29V7.5H31.5V5Z" fill="black"></path><path d="M34 7.5H31.5V14.5H34V7.5Z" fill="black"></path><path d="M2.5 17H0V39.5H2.5V17Z" fill="black"></path><path d="M36.5 39.5H2.5V42H36.5V39.5Z" fill="black"></path><path d="M36.5 14.5H34V17H36.5V14.5Z" fill="black"></path><path d="M26.5 5H29V2.5V0H26.5H22V2.5H26.5V5Z" fill="black"></path><path d="M5 14.5H2.5V17H5V14.5Z" fill="black"></path><path d="M39 17H36.5V39.5H39V17Z" fill="black"></path><path d="M7.5 7.5H5V14.5H7.5V7.5Z" fill="black"></path><path d="M22 2.5H17V5H22V2.5Z" fill="black"></path><path d="M10 5H7.5V7.5H10V5Z" fill="black"></path><path d="M12.5 2.5H17V0H12.5H10V5H12.5V2.5Z" fill="black"></path><path fill-rule="evenodd" clip-rule="evenodd" d="M34 17V14.5H31.5V12H26.5V7.5H22V12H17V7.5H12.5V12H7.5V14.5H5V17H2.5V39.5H36.5V17H34Z" fill="#F22C27"></path><path fill-rule="evenodd" clip-rule="evenodd" d="M29 7.5V5H27H26.5V2.5H22V5H17V2.5H12.5V5H10V7.5H7.5V9.5V12H10H12.5V10V9.5V7.5H17V9.5V12H22V9.5V7.5H26.5V9.5V10V12H29H31.5V9.5V7.5H29Z" fill="#FFEC05"></path></g><defs><clipPath id="clip0_1614_159253"><rect width="39" height="42" fill="white"></rect></clipPath></defs></svg> 